<svg width="830" height="830" viewBox="0 0 830 830" fill="none" xmlns="http://www.w3.org/2000/svg">
<g filter="url(#filter0_i_122_4)">
<circle cx="415" cy="415" r="400" fill="white"/>
</g>
<circle cx="415" cy="415" r="407.5" stroke="#353840" stroke-width="15"/>
<rect x="499.942" y="268.792" width="130" height="30" rx="15" transform="rotate(-15 499.942 268.792)" fill="#353840"/>
<circle cx="262" cy="298" r="35" fill="#353840"/>
<path d="M330 551.5C330 547.358 333.358 544 337.5 544H492.5C496.642 544 500 547.358 500 551.5C500 555.642 496.642 559 492.5 559H337.5C333.358 559 330 555.642 330 551.5Z" fill="#353840"/>
<circle cx="567" cy="298" r="35" fill="#353840"/>
<rect x="203.097" y="231.688" width="130" height="30" rx="15" transform="rotate(15 203.097 231.688)" fill="#353840"/>
<defs>
<filter id="filter0_i_122_4" x="0" y="0" width="830" height="980" filterUnits="userSpaceOnUse" color-interpolation-filters="sRGB">
<feFlood flood-opacity="0" result="BackgroundImageFix"/>
<feBlend mode="normal" in="SourceGraphic" in2="BackgroundImageFix" result="shape"/>
<feColorMatrix in="SourceAlpha" type="matrix" values="0 0 0 0 0 0 0 0 0 0 0 0 0 0 0 0 0 0 127 0" result="hardAlpha"/>
<feMorphology radius="75" operator="erode" in="SourceAlpha" result="effect1_innerShadow_122_4"/>
<feOffset dy="150"/>
<feGaussianBlur stdDeviation="75"/>
<feComposite in2="hardAlpha" operator="arithmetic" k2="-1" k3="1"/>
<feColorMatrix type="matrix" values="0 0 0 0 0.956863 0 0 0 0 0.505882 0 0 0 0 0.509804 0 0 0 0.8 0"/>
<feBlend mode="normal" in2="shape" result="effect1_innerShadow_122_4"/>
</filter>
</defs>
</svg>
