<svg width="830" height="880" viewBox="0 0 830 880" fill="none" xmlns="http://www.w3.org/2000/svg">
<circle cx="187" cy="90" r="82.5" fill="#D09E88" stroke="#353840" stroke-width="15"/>
<circle cx="187" cy="90" r="50" fill="#353840"/>
<circle cx="642" cy="90" r="82.5" fill="#D09E88" stroke="#353840" stroke-width="15"/>
<circle cx="642" cy="90" r="50" fill="#353840"/>
<g filter="url(#filter0_i_122_11)">
<circle cx="415" cy="465" r="400" fill="#D09E88"/>
</g>
<circle cx="415" cy="465" r="407.5" stroke="#353840" stroke-width="15"/>
<circle cx="567" cy="348" r="35" fill="#353840"/>
<circle cx="262" cy="348" r="35" fill="#353840"/>
<circle cx="567" cy="353" r="10" fill="white"/>
<circle cx="262" cy="353" r="10" fill="white"/>
<path d="M240 570H590C590 581.046 581.046 590 570 590H260C248.954 590 240 581.046 240 570Z" fill="#353840"/>
<path d="M385 475C385 469.477 389.477 465 395 465H435C440.523 465 445 469.477 445 475V495C445 511.569 431.569 525 415 525C398.431 525 385 511.569 385 495V475Z" fill="#353840"/>
<defs>
<filter id="filter0_i_122_11" x="0" y="30" width="830" height="850" filterUnits="userSpaceOnUse" color-interpolation-filters="sRGB">
<feFlood flood-opacity="0" result="BackgroundImageFix"/>
<feBlend mode="normal" in="SourceGraphic" in2="BackgroundImageFix" result="shape"/>
<feColorMatrix in="SourceAlpha" type="matrix" values="0 0 0 0 0 0 0 0 0 0 0 0 0 0 0 0 0 0 127 0" result="hardAlpha"/>
<feMorphology radius="10" operator="erode" in="SourceAlpha" result="effect1_innerShadow_122_11"/>
<feOffset dy="-20"/>
<feGaussianBlur stdDeviation="10"/>
<feComposite in2="hardAlpha" operator="arithmetic" k2="-1" k3="1"/>
<feColorMatrix type="matrix" values="0 0 0 0 0 0 0 0 0 0 0 0 0 0 0 0 0 0 0.25 0"/>
<feBlend mode="normal" in2="shape" result="effect1_innerShadow_122_11"/>
</filter>
</defs>
</svg>
