<svg width="830" height="830" viewBox="0 0 830 830" fill="none" xmlns="http://www.w3.org/2000/svg">
<g filter="url(#filter0_i_122_12)">
<circle cx="415" cy="415" r="400" fill="white"/>
</g>
<circle cx="415" cy="415" r="407.5" stroke="#353840" stroke-width="15"/>
<ellipse cx="415" cy="547.5" rx="100" ry="37.5" fill="#353840"/>
<ellipse cx="415" cy="628.5" rx="25" ry="7.5" fill="#353840" fill-opacity="0.25"/>
<g clip-path="url(#clip0_122_12)">
<path fill-rule="evenodd" clip-rule="evenodd" d="M596.594 297.575C603.187 295.539 607.958 290.803 608.682 281.581C609.677 268.962 599.748 262.947 586.436 259.369L589.283 243.222L578.863 241.385L576.058 257.293L567.706 255.821L570.511 239.912L560.091 238.075L557.286 253.983C554.979 253.576 552.818 253.277 550.591 252.885L537.705 250.612L535.699 261.987C535.699 261.987 541.852 262.908 541.665 263.039C545.88 263.782 546.877 266.501 546.896 268.718L543.446 288.286L538.621 315.648C538.224 316.972 537.05 318.98 534.107 318.461C534.252 318.568 528.141 317.409 528.141 317.409L523.787 330.01L543.195 333.432L540.39 349.34L550.81 351.178L553.615 335.269L561.967 336.742L559.162 352.65L569.582 354.488L572.457 338.181C590.218 340.247 603.239 338.032 607.747 321.768C611.362 308.709 606.13 301.635 596.608 297.496L596.594 297.575ZM565.719 268.019L567.867 268.397C575.213 269.528 590.237 271.768 588.287 282.824C586.38 293.642 570.832 290.654 563.701 289.233L561.951 288.924L565.626 268.084L565.719 268.019ZM587.431 316.053C585.327 327.984 566.691 324.37 558.114 322.776L556.046 322.411L560.1 299.424L562.645 299.872C571.437 301.177 589.483 303.949 587.338 316.119L587.431 316.053Z" fill="#F8C10D"/>
</g>
<g clip-path="url(#clip1_122_12)">
<path fill-rule="evenodd" clip-rule="evenodd" d="M291.108 288.224C296.606 284.056 299.47 277.974 296.996 269.061C293.615 256.862 282.227 254.606 268.495 255.797L265.648 239.65L255.228 241.487L258.033 257.395L249.681 258.868L246.876 242.96L236.456 244.797L239.261 260.705C236.954 261.112 234.82 261.57 232.593 261.963L219.707 264.235L221.713 275.61C221.713 275.61 227.81 274.371 227.679 274.558C231.894 273.815 233.761 276.028 234.537 278.105L237.988 297.673L242.812 325.035C242.892 326.416 242.475 328.703 239.532 329.222C239.705 329.274 233.566 330.274 233.566 330.274L233.784 343.604L253.193 340.182L255.998 356.091L266.418 354.253L263.613 338.345L271.965 336.872L274.77 352.781L285.19 350.943L282.314 334.637C299.711 330.503 311.189 323.969 309.863 307.143C308.793 293.635 301.457 288.778 291.094 288.145L291.108 288.224ZM251.986 271.01L254.133 270.631C261.423 269.182 276.307 266.147 278.257 277.204C280.164 288.022 264.532 290.532 257.345 291.635L255.595 291.944L251.92 271.104L251.986 271.01ZM288.817 308.722C290.921 320.653 272.172 323.631 263.568 325.066L261.5 325.431L257.446 302.443L259.992 301.994C268.699 300.213 286.606 296.646 288.751 308.816L288.817 308.722Z" fill="#F8C10D"/>
</g>
<defs>
<filter id="filter0_i_122_12" x="0" y="-20" width="830" height="850" filterUnits="userSpaceOnUse" color-interpolation-filters="sRGB">
<feFlood flood-opacity="0" result="BackgroundImageFix"/>
<feBlend mode="normal" in="SourceGraphic" in2="BackgroundImageFix" result="shape"/>
<feColorMatrix in="SourceAlpha" type="matrix" values="0 0 0 0 0 0 0 0 0 0 0 0 0 0 0 0 0 0 127 0" result="hardAlpha"/>
<feMorphology radius="10" operator="erode" in="SourceAlpha" result="effect1_innerShadow_122_12"/>
<feOffset dy="-20"/>
<feGaussianBlur stdDeviation="10"/>
<feComposite in2="hardAlpha" operator="arithmetic" k2="-1" k3="1"/>
<feColorMatrix type="matrix" values="0 0 0 0 0 0 0 0 0 0 0 0 0 0 0 0 0 0 0.25 0"/>
<feBlend mode="normal" in2="shape" result="effect1_innerShadow_122_12"/>
</filter>
<clipPath id="clip0_122_12">
<rect width="105" height="129.231" fill="white" transform="translate(526.018 223.865) rotate(10)"/>
</clipPath>
<clipPath id="clip1_122_12">
<rect width="105" height="129.231" fill="white" transform="translate(199.577 243.098) rotate(-10)"/>
</clipPath>
</defs>
</svg>
