<svg width="830" height="927" viewBox="0 0 830 927" fill="none" xmlns="http://www.w3.org/2000/svg">
<rect x="390" y="791" width="50" height="136" rx="25" fill="#353840"/>
<g filter="url(#filter0_i_123_16)">
<circle cx="415" cy="415" r="400" fill="#FA5879"/>
</g>
<circle cx="415" cy="415" r="407.5" stroke="#353840" stroke-width="15"/>
<circle cx="567" cy="298" r="35" fill="#353840"/>
<circle cx="567" cy="315" r="35" fill="#FA5879"/>
<circle cx="262" cy="298" r="35" fill="#353840"/>
<circle cx="262" cy="315" r="35" fill="#FA5879"/>
<path d="M275 500H555V505C555 532.614 532.614 555 505 555H325C297.386 555 275 532.614 275 505V500Z" fill="#353840"/>
<path d="M290 510H540C540 526.569 526.569 540 510 540H320C303.431 540 290 526.569 290 510Z" fill="white"/>
<defs>
<filter id="filter0_i_123_16" x="0" y="-20" width="830" height="850" filterUnits="userSpaceOnUse" color-interpolation-filters="sRGB">
<feFlood flood-opacity="0" result="BackgroundImageFix"/>
<feBlend mode="normal" in="SourceGraphic" in2="BackgroundImageFix" result="shape"/>
<feColorMatrix in="SourceAlpha" type="matrix" values="0 0 0 0 0 0 0 0 0 0 0 0 0 0 0 0 0 0 127 0" result="hardAlpha"/>
<feMorphology radius="10" operator="erode" in="SourceAlpha" result="effect1_innerShadow_123_16"/>
<feOffset dy="-20"/>
<feGaussianBlur stdDeviation="10"/>
<feComposite in2="hardAlpha" operator="arithmetic" k2="-1" k3="1"/>
<feColorMatrix type="matrix" values="0 0 0 0 0 0 0 0 0 0 0 0 0 0 0 0 0 0 0.25 0"/>
<feBlend mode="normal" in2="shape" result="effect1_innerShadow_123_16"/>
</filter>
</defs>
</svg>
