<svg width="830" height="830" viewBox="0 0 830 830" fill="none" xmlns="http://www.w3.org/2000/svg">
<g filter="url(#filter0_i_122_10)">
<circle cx="415" cy="415" r="400" fill="#97222B"/>
</g>
<circle cx="415" cy="415" r="407.5" stroke="#353840" stroke-width="15"/>
<path d="M515 375C515 319.772 559.772 275 615 275H715V375C715 430.228 670.228 475 615 475H515V375Z" fill="#353840"/>
<path d="M565.665 392.638C583.171 355.098 627.794 338.856 665.335 356.362C647.829 393.902 603.206 410.144 565.665 392.638Z" fill="white"/>
<path d="M215 475C159.772 475 115 430.228 115 375L115 275H215C270.228 275 315 319.772 315 375V475H215Z" fill="#353840"/>
<path d="M264.335 392.638C226.794 410.144 182.171 393.902 164.665 356.361C202.206 338.856 246.829 355.098 264.335 392.638Z" fill="white"/>
<defs>
<filter id="filter0_i_122_10" x="0" y="-20" width="830" height="850" filterUnits="userSpaceOnUse" color-interpolation-filters="sRGB">
<feFlood flood-opacity="0" result="BackgroundImageFix"/>
<feBlend mode="normal" in="SourceGraphic" in2="BackgroundImageFix" result="shape"/>
<feColorMatrix in="SourceAlpha" type="matrix" values="0 0 0 0 0 0 0 0 0 0 0 0 0 0 0 0 0 0 127 0" result="hardAlpha"/>
<feMorphology radius="10" operator="erode" in="SourceAlpha" result="effect1_innerShadow_122_10"/>
<feOffset dy="-20"/>
<feGaussianBlur stdDeviation="10"/>
<feComposite in2="hardAlpha" operator="arithmetic" k2="-1" k3="1"/>
<feColorMatrix type="matrix" values="0 0 0 0 0 0 0 0 0 0 0 0 0 0 0 0 0 0 0.25 0"/>
<feBlend mode="normal" in2="shape" result="effect1_innerShadow_122_10"/>
</filter>
</defs>
</svg>
