<svg width="830" height="830" viewBox="0 0 830 830" fill="none" xmlns="http://www.w3.org/2000/svg">
<g filter="url(#filter0_i_120_2)">
<circle cx="415" cy="415" r="400" fill="white"/>
</g>
<circle cx="415" cy="415" r="407.5" stroke="#353840" stroke-width="15"/>
<ellipse cx="415" cy="547.5" rx="100" ry="37.5" fill="#353840"/>
<ellipse cx="415" cy="628.5" rx="25" ry="7.5" fill="#353840" fill-opacity="0.25"/>
<path d="M268.302 287.233L265.23 269.809C271.157 270.198 277.179 271.868 282.458 275.234L282.473 275.205C282.86 275.415 283.305 275.529 283.774 275.446C284.391 275.337 284.867 274.946 285.155 274.442L285.182 274.443L290.701 262.793L290.682 262.788C290.923 262.386 291.045 261.91 290.957 261.413C290.854 260.828 290.5 260.36 290.032 260.068C282.11 254.977 272.746 252.733 262.336 253.397L260.572 243.391C260.378 242.293 259.33 241.561 258.233 241.755L250.343 243.146C249.245 243.34 248.513 244.386 248.706 245.484L250.426 255.236C233.693 260.008 225.508 272.648 227.757 285.4C230.784 302.57 245.793 305.001 259.353 305.865L262.803 325.433C254.19 325.409 246.564 322.292 241.041 318.27C241.002 318.24 240.962 318.215 240.92 318.189L240.815 318.117L240.804 318.138C240.406 317.902 239.939 317.813 239.482 317.886C239.128 317.952 238.799 318.112 238.528 318.35C238.258 318.588 238.057 318.894 237.947 319.237L237.922 319.238L232.674 331.046L232.686 331.061C232.429 331.471 232.331 331.962 232.41 332.439C232.521 333.072 232.93 333.554 233.452 333.837L233.438 333.868C241.606 339.587 252.219 342.922 265.676 341.722L267.329 351.098C267.522 352.196 268.568 352.928 269.666 352.734L277.556 351.343C278.654 351.15 279.386 350.102 279.193 349.006L277.541 339.628C295.766 334.46 303.069 321.981 300.598 307.964C297.548 290.67 282.012 288.199 268.302 287.233ZM255.923 286.42C250.458 285.694 246.587 284.421 245.942 280.759C245.185 276.468 247.808 272.881 253.229 271.144L255.923 286.42ZM274.714 323.594L271.731 306.677C277.598 307.464 281.869 308.797 282.603 312.96C283.316 317.002 280.93 321.195 274.714 323.594Z" fill="#68D4B6"/>
<path d="M575.464 289.836L578.536 272.413C583.973 274.805 589.061 278.434 592.87 283.402L592.894 283.38C593.186 283.71 593.565 283.969 594.034 284.052C594.651 284.16 595.232 283.956 595.675 283.581L595.7 283.59L604.871 274.531L604.855 274.519C605.218 274.225 605.496 273.819 605.583 273.322C605.687 272.736 605.514 272.176 605.174 271.741C599.471 264.248 591.439 258.937 581.43 256.001L583.194 245.995C583.388 244.897 582.654 243.85 581.556 243.657L573.666 242.266C572.568 242.072 571.522 242.804 571.329 243.902L569.609 253.655C552.253 252.416 540.239 261.495 537.991 274.246C534.963 291.417 548.235 298.834 560.682 304.284L557.232 323.851C549.145 320.883 543.046 315.346 539.231 309.678C539.205 309.636 539.176 309.599 539.146 309.56L539.071 309.456L539.054 309.473C538.761 309.115 538.352 308.872 537.898 308.784C537.543 308.724 537.178 308.762 536.843 308.893C536.508 309.024 536.214 309.244 535.993 309.528L535.97 309.52L527 318.821L527.005 318.84C526.623 319.137 526.364 319.564 526.275 320.04C526.163 320.673 526.382 321.266 526.776 321.71L526.753 321.734C532.472 329.902 541.303 336.666 554.359 340.141L552.706 349.516C552.513 350.614 553.245 351.66 554.343 351.854L562.233 353.245C563.33 353.439 564.377 352.705 564.57 351.608L566.225 342.232C585.119 343.608 596.25 334.38 598.721 320.363C601.771 303.069 588.016 295.433 575.464 289.836ZM564.109 284.838C559.222 282.287 556.02 279.767 556.666 276.105C557.423 271.814 561.114 269.341 566.802 269.562L564.109 284.838ZM569.053 326.197L572.036 309.28C577.28 312.026 580.837 314.74 580.103 318.903C579.391 322.945 575.714 326.069 569.053 326.197Z" fill="#68D4B6"/>
<defs>
<filter id="filter0_i_120_2" x="0" y="-20" width="830" height="850" filterUnits="userSpaceOnUse" color-interpolation-filters="sRGB">
<feFlood flood-opacity="0" result="BackgroundImageFix"/>
<feBlend mode="normal" in="SourceGraphic" in2="BackgroundImageFix" result="shape"/>
<feColorMatrix in="SourceAlpha" type="matrix" values="0 0 0 0 0 0 0 0 0 0 0 0 0 0 0 0 0 0 127 0" result="hardAlpha"/>
<feMorphology radius="10" operator="erode" in="SourceAlpha" result="effect1_innerShadow_120_2"/>
<feOffset dy="-20"/>
<feGaussianBlur stdDeviation="10"/>
<feComposite in2="hardAlpha" operator="arithmetic" k2="-1" k3="1"/>
<feColorMatrix type="matrix" values="0 0 0 0 0 0 0 0 0 0 0 0 0 0 0 0 0 0 0.25 0"/>
<feBlend mode="normal" in2="shape" result="effect1_innerShadow_120_2"/>
</filter>
</defs>
</svg>
