<svg width="830" height="830" viewBox="0 0 830 830" fill="none" xmlns="http://www.w3.org/2000/svg">
<g filter="url(#filter0_i_124_21)">
<circle cx="415" cy="415" r="400" fill="white"/>
</g>
<circle cx="415" cy="415" r="407.5" stroke="#353840" stroke-width="15"/>
<path d="M414.5 8.25C190.25 8.25 8.25 190.25 8.25 414.5C8.25 638.75 190.25 820.75 414.5 820.75C638.343 820.75 820.75 638.75 820.75 414.5C820.75 190.25 638.343 8.25 414.5 8.25ZM682.828 195.531C732.824 256.44 760.49 332.615 761.234 411.412C749.818 409.219 635.256 385.859 519.8 400.403C517.159 394.675 514.925 388.5 512.325 382.325C505.139 365.385 497.498 348.641 489.412 332.112C617.178 280.112 675.353 205.2 682.828 195.531ZM414.5 68.1718C502.656 68.1718 583.256 101.241 644.518 155.434C638.343 164.209 585.897 234.287 462.519 280.559C405.684 176.153 342.675 90.6375 332.965 77.4343C359.691 71.1865 387.054 68.078 414.5 68.1718ZM266.909 100.794C313.402 165.238 356.352 232.165 395.569 301.278C233.394 344.462 90.1906 343.528 74.7937 343.528C85.9586 291.005 109.106 241.771 142.43 199.666C175.755 157.562 218.355 123.724 266.909 100.794ZM67.2781 414.906V404.344C82.3093 404.75 250.578 406.984 423.762 354.984C433.918 374.362 443.14 394.187 451.956 414.012C447.528 415.353 442.694 416.653 438.306 417.994C259.394 475.681 164.209 633.428 156.287 646.672C98.9963 583.073 67.2595 500.504 67.2781 414.906ZM414.5 761.721C337.37 761.853 262.427 736.104 201.666 688.596C207.841 675.8 278.365 540.072 473.975 471.781C474.868 471.375 475.315 471.375 476.168 470.887C509.168 556.013 533.967 644.095 550.228 733.934C507.361 752.38 461.167 761.837 414.5 761.721ZM607.915 702.206C604.422 681.081 585.897 579.722 540.478 455.044C649.353 437.859 744.537 466.053 756.4 470.034C748.99 516.878 731.975 561.685 706.423 601.639C680.87 641.593 647.332 675.832 607.915 702.206Z" fill="#353840"/>
<circle cx="492" cy="170" r="35" fill="#353840"/>
<circle cx="492" cy="170" r="10" fill="white"/>
<circle cx="250" cy="250" r="35" fill="#353840"/>
<circle cx="250" cy="250" r="10" fill="white"/>
<g clip-path="url(#clip0_124_21)">
<rect x="361.675" y="563.348" width="100" height="150" rx="50" transform="rotate(-13 361.675 563.348)" fill="#353840"/>
<rect x="308.247" y="656.518" width="150" height="150" rx="50" transform="rotate(-13 308.247 656.518)" fill="#ED7785"/>
</g>
<defs>
<filter id="filter0_i_124_21" x="0" y="-20" width="830" height="850" filterUnits="userSpaceOnUse" color-interpolation-filters="sRGB">
<feFlood flood-opacity="0" result="BackgroundImageFix"/>
<feBlend mode="normal" in="SourceGraphic" in2="BackgroundImageFix" result="shape"/>
<feColorMatrix in="SourceAlpha" type="matrix" values="0 0 0 0 0 0 0 0 0 0 0 0 0 0 0 0 0 0 127 0" result="hardAlpha"/>
<feMorphology radius="10" operator="erode" in="SourceAlpha" result="effect1_innerShadow_124_21"/>
<feOffset dy="-20"/>
<feGaussianBlur stdDeviation="10"/>
<feComposite in2="hardAlpha" operator="arithmetic" k2="-1" k3="1"/>
<feColorMatrix type="matrix" values="0 0 0 0 0 0 0 0 0 0 0 0 0 0 0 0 0 0 0.25 0"/>
<feBlend mode="normal" in2="shape" result="effect1_innerShadow_124_21"/>
</filter>
<clipPath id="clip0_124_21">
<rect x="361.675" y="563.348" width="100" height="150" rx="50" transform="rotate(-13 361.675 563.348)" fill="white"/>
</clipPath>
</defs>
</svg>
