<svg width="830" height="830" viewBox="0 0 830 830" fill="none" xmlns="http://www.w3.org/2000/svg">
<g filter="url(#filter0_i_122_3)">
<circle cx="415" cy="415" r="400" fill="white"/>
</g>
<circle cx="415" cy="415" r="407.5" stroke="#353840" stroke-width="15"/>
<path d="M573.378 227.227L571 219.91L568.622 227.227L553.468 273.869L504.426 273.869H496.732L502.957 278.391L542.632 307.217L527.477 353.859L525.1 361.176L531.324 356.654L571 327.828L610.676 356.654L616.9 361.176L614.523 353.859L599.368 307.217L639.043 278.391L645.268 273.869H637.574L588.532 273.869L573.378 227.227Z" fill="#FEEE7F" stroke="#FEEE7F" stroke-width="5"/>
<path d="M407 639C407 633.477 411.477 629 417 629C422.523 629 427 633.477 427 639C427 644.523 422.523 649 417 649C411.477 649 407 644.523 407 639Z" fill="#353840" fill-opacity="0.25"/>
<path d="M392 548C392 534.193 403.193 523 417 523C430.807 523 442 534.193 442 548C442 561.807 430.807 573 417 573C403.193 573 392 561.807 392 548Z" fill="#353840"/>
<path d="M268.378 227.227L266 219.91L263.622 227.227L248.468 273.869L199.426 273.869H191.732L197.957 278.391L237.632 307.217L222.477 353.859L220.1 361.176L226.324 356.654L266 327.828L305.676 356.654L311.9 361.176L309.523 353.859L294.368 307.217L334.043 278.391L340.268 273.869H332.574L283.532 273.869L268.378 227.227Z" fill="#FEEE7F" stroke="#FEEE7F" stroke-width="5"/>
<defs>
<filter id="filter0_i_122_3" x="0" y="-20" width="830" height="850" filterUnits="userSpaceOnUse" color-interpolation-filters="sRGB">
<feFlood flood-opacity="0" result="BackgroundImageFix"/>
<feBlend mode="normal" in="SourceGraphic" in2="BackgroundImageFix" result="shape"/>
<feColorMatrix in="SourceAlpha" type="matrix" values="0 0 0 0 0 0 0 0 0 0 0 0 0 0 0 0 0 0 127 0" result="hardAlpha"/>
<feMorphology radius="20" operator="erode" in="SourceAlpha" result="effect1_innerShadow_122_3"/>
<feOffset dy="-20"/>
<feGaussianBlur stdDeviation="10"/>
<feComposite in2="hardAlpha" operator="arithmetic" k2="-1" k3="1"/>
<feColorMatrix type="matrix" values="0 0 0 0 0 0 0 0 0 0 0 0 0 0 0 0 0 0 0.25 0"/>
<feBlend mode="normal" in2="shape" result="effect1_innerShadow_122_3"/>
</filter>
</defs>
</svg>
