<svg width="830" height="830" viewBox="0 0 830 830" fill="none" xmlns="http://www.w3.org/2000/svg">
<g filter="url(#filter0_i_122_6)">
<circle cx="415" cy="415" r="400" fill="white"/>
</g>
<circle cx="415" cy="415" r="407.5" stroke="#353840" stroke-width="15"/>
<path d="M275 523H555V553C555 580.614 532.614 603 505 603H325C297.386 603 275 580.614 275 553V523Z" fill="#353840"/>
<path d="M315 583C315 571.954 323.954 563 335 563H495C506.046 563 515 571.954 515 583V584.429C515 612.043 492.614 634.429 465 634.429H365C337.386 634.429 315 612.043 315 584.429V583Z" fill="#ED7785"/>
<g clip-path="url(#clip0_122_6)">
<path fill-rule="evenodd" clip-rule="evenodd" d="M266.435 290.315C268.471 292.354 269.615 295.118 269.615 298C269.615 300.882 268.471 303.646 266.435 305.685L225.429 346.705C223.389 348.745 220.622 349.89 217.738 349.889C214.853 349.888 212.087 348.742 210.048 346.702C208.009 344.662 206.864 341.895 206.864 339.011C206.865 336.126 208.011 333.36 210.052 331.321L243.373 298L210.052 264.679C208.07 262.629 206.972 259.882 206.996 257.031C207.019 254.18 208.161 251.451 210.177 249.434C212.192 247.417 214.919 246.272 217.771 246.246C220.622 246.22 223.37 247.314 225.422 249.294L266.442 290.308L266.435 290.315Z" fill="#353840"/>
</g>
<g clip-path="url(#clip1_122_6)">
<path fill-rule="evenodd" clip-rule="evenodd" d="M562.565 305.685C560.529 303.646 559.385 300.882 559.385 298C559.385 295.118 560.529 292.354 562.565 290.315L603.571 249.294C605.611 247.255 608.378 246.11 611.262 246.111C612.691 246.111 614.105 246.393 615.424 246.94C616.744 247.487 617.942 248.288 618.952 249.298C619.962 250.308 620.763 251.507 621.309 252.827C621.855 254.147 622.136 255.561 622.136 256.989C622.135 258.418 621.854 259.832 621.307 261.151C620.76 262.471 619.959 263.669 618.948 264.679L585.627 298L618.948 331.321C619.988 332.324 620.817 333.523 621.387 334.85C621.958 336.176 622.258 337.603 622.272 339.047C622.285 340.491 622.01 341.923 621.464 343.26C620.918 344.597 620.111 345.811 619.091 346.833C618.07 347.854 616.856 348.663 615.52 349.21C614.184 349.757 612.752 350.033 611.308 350.021C609.864 350.01 608.437 349.71 607.11 349.141C605.783 348.572 604.582 347.744 603.578 346.705L562.551 305.685H562.565Z" fill="#353840"/>
</g>
<defs>
<filter id="filter0_i_122_6" x="0" y="-20" width="830" height="850" filterUnits="userSpaceOnUse" color-interpolation-filters="sRGB">
<feFlood flood-opacity="0" result="BackgroundImageFix"/>
<feBlend mode="normal" in="SourceGraphic" in2="BackgroundImageFix" result="shape"/>
<feColorMatrix in="SourceAlpha" type="matrix" values="0 0 0 0 0 0 0 0 0 0 0 0 0 0 0 0 0 0 127 0" result="hardAlpha"/>
<feMorphology radius="10" operator="erode" in="SourceAlpha" result="effect1_innerShadow_122_6"/>
<feOffset dy="-20"/>
<feGaussianBlur stdDeviation="10"/>
<feComposite in2="hardAlpha" operator="arithmetic" k2="-1" k3="1"/>
<feColorMatrix type="matrix" values="0 0 0 0 0 0 0 0 0 0 0 0 0 0 0 0 0 0 0.25 0"/>
<feBlend mode="normal" in2="shape" result="effect1_innerShadow_122_6"/>
</filter>
<clipPath id="clip0_122_6">
<rect width="174" height="174" fill="white" transform="translate(150 211)"/>
</clipPath>
<clipPath id="clip1_122_6">
<rect width="174" height="174" fill="white" transform="translate(505 211)"/>
</clipPath>
</defs>
</svg>
