<svg width="830" height="830" viewBox="0 0 830 830" fill="none" xmlns="http://www.w3.org/2000/svg">
<g filter="url(#filter0_i_122_8)">
<circle cx="415" cy="415" r="400" fill="white"/>
</g>
<circle cx="415" cy="415" r="407.5" stroke="#353840" stroke-width="15"/>
<circle cx="262" cy="298" r="35" fill="#353840"/>
<circle cx="262" cy="325" r="35" fill="white"/>
<circle cx="567" cy="298" r="35" fill="#353840"/>
<circle cx="567" cy="325" r="35" fill="white"/>
<path d="M290 549C290 546.239 292.239 544 295 544H535C537.761 544 540 546.239 540 549C540 554.523 535.523 559 530 559H300C294.477 559 290 554.523 290 549Z" fill="#353840"/>
<path d="M263.878 376.227L261.5 368.91L259.122 376.227L251.264 400.412H225.835H218.141L224.366 404.934L244.938 419.881L237.08 444.066L234.703 451.383L240.928 446.861L261.5 431.914L282.072 446.861L288.297 451.383L285.92 444.066L278.062 419.881L298.634 404.934L304.859 400.412H297.165H271.736L263.878 376.227Z" fill="#E25BA0" stroke="#E25BA0" stroke-width="5"/>
<path d="M566.5 455.833C558.875 455.833 551.562 452.804 546.171 447.413C540.779 442.021 537.75 434.708 537.75 427.083C537.75 407.917 566.5 375.573 566.5 375.573C566.5 375.573 595.25 407.917 595.25 427.083C595.25 434.708 592.221 442.021 586.829 447.413C581.438 452.804 574.125 455.833 566.5 455.833Z" fill="#6FCEAE"/>
<defs>
<filter id="filter0_i_122_8" x="0" y="-20" width="830" height="850" filterUnits="userSpaceOnUse" color-interpolation-filters="sRGB">
<feFlood flood-opacity="0" result="BackgroundImageFix"/>
<feBlend mode="normal" in="SourceGraphic" in2="BackgroundImageFix" result="shape"/>
<feColorMatrix in="SourceAlpha" type="matrix" values="0 0 0 0 0 0 0 0 0 0 0 0 0 0 0 0 0 0 127 0" result="hardAlpha"/>
<feMorphology radius="10" operator="erode" in="SourceAlpha" result="effect1_innerShadow_122_8"/>
<feOffset dy="-20"/>
<feGaussianBlur stdDeviation="10"/>
<feComposite in2="hardAlpha" operator="arithmetic" k2="-1" k3="1"/>
<feColorMatrix type="matrix" values="0 0 0 0 0 0 0 0 0 0 0 0 0 0 0 0 0 0 0.25 0"/>
<feBlend mode="normal" in2="shape" result="effect1_innerShadow_122_8"/>
</filter>
</defs>
</svg>
