<svg width="830" height="830" viewBox="0 0 830 830" fill="none" xmlns="http://www.w3.org/2000/svg">
<g filter="url(#filter0_i_122_5)">
<circle cx="415" cy="415" r="400" fill="white"/>
</g>
<circle cx="415" cy="415" r="407.5" stroke="#353840" stroke-width="15"/>
<path d="M635.25 277.281C635.25 319.938 572.003 354.465 569.31 355.891C568.6 356.273 567.806 356.472 567 356.472C566.194 356.472 565.4 356.273 564.69 355.891C561.997 354.465 498.75 319.938 498.75 277.281C498.761 267.265 502.745 257.661 509.828 250.578C516.911 243.495 526.515 239.511 536.531 239.5C549.115 239.5 560.132 244.911 567 254.058C573.868 244.911 584.885 239.5 597.469 239.5C607.485 239.511 617.089 243.495 624.172 250.578C631.255 257.661 635.239 267.265 635.25 277.281Z" fill="#ED7785"/>
<path d="M407 629C407 623.477 411.477 619 417 619C422.523 619 427 623.477 427 629V639C427 644.523 422.523 649 417 649C411.477 649 407 644.523 407 639V629Z" fill="#353840" fill-opacity="0.25"/>
<path d="M392 533C392 519.193 403.193 508 417 508C430.807 508 442 519.193 442 533V553C442 566.807 430.807 578 417 578C403.193 578 392 566.807 392 553V533Z" fill="#353840"/>
<path d="M330.25 277.281C330.25 319.938 267.003 354.465 264.31 355.891C263.6 356.273 262.806 356.472 262 356.472C261.194 356.472 260.4 356.273 259.69 355.891C256.997 354.465 193.75 319.938 193.75 277.281C193.761 267.265 197.745 257.661 204.828 250.578C211.911 243.495 221.515 239.511 231.531 239.5C244.115 239.5 255.132 244.911 262 254.058C268.868 244.911 279.885 239.5 292.469 239.5C302.485 239.511 312.089 243.495 319.172 250.578C326.255 257.661 330.239 267.265 330.25 277.281Z" fill="#ED7785"/>
<defs>
<filter id="filter0_i_122_5" x="0" y="-20" width="830" height="850" filterUnits="userSpaceOnUse" color-interpolation-filters="sRGB">
<feFlood flood-opacity="0" result="BackgroundImageFix"/>
<feBlend mode="normal" in="SourceGraphic" in2="BackgroundImageFix" result="shape"/>
<feColorMatrix in="SourceAlpha" type="matrix" values="0 0 0 0 0 0 0 0 0 0 0 0 0 0 0 0 0 0 127 0" result="hardAlpha"/>
<feMorphology radius="10" operator="erode" in="SourceAlpha" result="effect1_innerShadow_122_5"/>
<feOffset dy="-20"/>
<feGaussianBlur stdDeviation="10"/>
<feComposite in2="hardAlpha" operator="arithmetic" k2="-1" k3="1"/>
<feColorMatrix type="matrix" values="0 0 0 0 0 0 0 0 0 0 0 0 0 0 0 0 0 0 0.25 0"/>
<feBlend mode="normal" in2="shape" result="effect1_innerShadow_122_5"/>
</filter>
</defs>
</svg>
