<svg width="830" height="830" viewBox="0 0 830 830" fill="none" xmlns="http://www.w3.org/2000/svg">
<g filter="url(#filter0_i_123_20)">
<circle cx="415" cy="415" r="400" fill="#EBF3FF"/>
</g>
<circle cx="415" cy="415" r="407.5" stroke="#353840" stroke-width="15"/>
<circle cx="51" cy="430" r="10" fill="#C8E0F7"/>
<circle cx="739.5" cy="345.5" r="12.5" fill="#C8E0F7"/>
<circle cx="370" cy="56" r="15" fill="#C8E0F7"/>
<circle cx="612" cy="644" r="25" fill="#C8E0F7"/>
<circle cx="201" cy="649" r="20" fill="#C8E0F7"/>
<circle cx="535" cy="527" r="10" fill="#C8E0F7"/>
<circle cx="447.5" cy="525.5" r="32.5" fill="#C8E0F7"/>
<circle cx="165" cy="183" r="30" fill="#C8E0F7"/>
<circle cx="587" cy="138" r="15" fill="#C8E0F7"/>
<circle cx="165" cy="183" r="30" fill="#C8E0F7"/>
<circle cx="567" cy="298" r="35" fill="#353840"/>
<circle cx="262" cy="298" r="35" fill="#353840"/>
<g clip-path="url(#clip0_123_20)">
<path d="M275 400H555V430C555 457.614 532.614 480 505 480H325C297.386 480 275 457.614 275 430V400Z" fill="#353840"/>
<path d="M315 460C315 448.954 323.954 440 335 440H495C506.046 440 515 448.954 515 460V461.429C515 489.043 492.614 511.429 465 511.429H365C337.386 511.429 315 489.043 315 461.429V460Z" fill="#ED7785"/>
<path d="M290 410H540C540 418.284 533.284 425 525 425H305C296.716 425 290 418.284 290 410Z" fill="white"/>
</g>
<defs>
<filter id="filter0_i_123_20" x="0" y="-20" width="830" height="850" filterUnits="userSpaceOnUse" color-interpolation-filters="sRGB">
<feFlood flood-opacity="0" result="BackgroundImageFix"/>
<feBlend mode="normal" in="SourceGraphic" in2="BackgroundImageFix" result="shape"/>
<feColorMatrix in="SourceAlpha" type="matrix" values="0 0 0 0 0 0 0 0 0 0 0 0 0 0 0 0 0 0 127 0" result="hardAlpha"/>
<feMorphology radius="10" operator="erode" in="SourceAlpha" result="effect1_innerShadow_123_20"/>
<feOffset dy="-20"/>
<feGaussianBlur stdDeviation="10"/>
<feComposite in2="hardAlpha" operator="arithmetic" k2="-1" k3="1"/>
<feColorMatrix type="matrix" values="0 0 0 0 0 0 0 0 0 0 0 0 0 0 0 0 0 0 0.25 0"/>
<feBlend mode="normal" in2="shape" result="effect1_innerShadow_123_20"/>
</filter>
<clipPath id="clip0_123_20">
<path d="M275 400H555V430C555 457.614 532.614 480 505 480H325C297.386 480 275 457.614 275 430V400Z" fill="white"/>
</clipPath>
</defs>
</svg>
