<svg width="830" height="917" viewBox="0 0 830 917" fill="none" xmlns="http://www.w3.org/2000/svg">
<g filter="url(#filter0_i_123_18)">
<circle cx="415" cy="502" r="400" fill="black"/>
</g>
<circle cx="415" cy="502" r="407.5" stroke="black" stroke-width="15"/>
<path d="M235 577C218.431 577 205 563.569 205 547C221.569 547 235 560.431 235 577Z" fill="white"/>
<path d="M635 487C635 431.772 679.772 387 735 387H785V437C785 492.228 740.228 537 685 537H635V487Z" fill="white"/>
<path d="M595 577C595 560.431 608.431 547 625 547C625 563.569 611.569 577 595 577Z" fill="white"/>
<path d="M145 537C89.7715 537 45 492.228 45 437L45 387H95C150.228 387 195 431.772 195 487L195 537H145Z" fill="white"/>
<ellipse cx="415" cy="752" rx="220" ry="150" fill="white"/>
<path d="M395.481 15.8247C396.342 6.85047 403.882 0 412.897 0C421.66 0 429.071 6.48178 430.238 15.1661L440.928 94.7003C443.083 110.738 430.61 125 414.428 125C398.651 125 386.305 111.411 387.812 95.7068L395.481 15.8247Z" fill="black"/>
<defs>
<filter id="filter0_i_123_18" x="0" y="67" width="830" height="850" filterUnits="userSpaceOnUse" color-interpolation-filters="sRGB">
<feFlood flood-opacity="0" result="BackgroundImageFix"/>
<feBlend mode="normal" in="SourceGraphic" in2="BackgroundImageFix" result="shape"/>
<feColorMatrix in="SourceAlpha" type="matrix" values="0 0 0 0 0 0 0 0 0 0 0 0 0 0 0 0 0 0 127 0" result="hardAlpha"/>
<feMorphology radius="10" operator="erode" in="SourceAlpha" result="effect1_innerShadow_123_18"/>
<feOffset dy="-20"/>
<feGaussianBlur stdDeviation="10"/>
<feComposite in2="hardAlpha" operator="arithmetic" k2="-1" k3="1"/>
<feColorMatrix type="matrix" values="0 0 0 0 0 0 0 0 0 0 0 0 0 0 0 0 0 0 0.25 0"/>
<feBlend mode="normal" in2="shape" result="effect1_innerShadow_123_18"/>
</filter>
</defs>
</svg>
