<svg width="830" height="830" viewBox="0 0 830 830" fill="none" xmlns="http://www.w3.org/2000/svg">
<g filter="url(#filter0_i_122_13)">
<circle cx="415" cy="415" r="400" fill="white"/>
</g>
<circle cx="415" cy="415" r="407.5" stroke="#353840" stroke-width="15"/>
<path d="M275 523H555V553C555 580.614 532.614 603 505 603H325C297.386 603 275 580.614 275 553V523Z" fill="#353840"/>
<path d="M315 583C315 571.954 323.954 563 335 563H495C506.046 563 515 571.954 515 583V584.429C515 612.043 492.614 634.429 465 634.429H365C337.386 634.429 315 612.043 315 584.429V583Z" fill="#9054A2"/>
<g clip-path="url(#clip0_122_13)">
<path d="M263.693 264.424C265.414 274.184 261.346 283.764 253.749 290.294L254.586 295.042C255.272 298.933 252.683 302.631 248.792 303.317L227.689 307.038C223.798 307.724 220.1 305.135 219.414 301.244L218.577 296.496C209.2 292.936 202.101 285.325 200.384 275.587C197.644 260.046 209.601 244.95 227.077 241.868C244.553 238.787 260.953 248.883 263.693 264.424ZM221.589 282.728C223.455 282.399 225.113 281.342 226.2 279.79C227.286 278.239 227.712 276.319 227.383 274.453C227.054 272.587 225.998 270.929 224.446 269.842C222.894 268.756 220.974 268.33 219.108 268.659C217.243 268.988 215.584 270.045 214.498 271.596C213.411 273.148 212.985 275.068 213.314 276.934C213.643 278.799 214.7 280.458 216.252 281.544C217.804 282.631 219.724 283.057 221.589 282.728ZM252.003 270.112C251.674 268.246 250.618 266.588 249.066 265.501C247.514 264.414 245.594 263.989 243.729 264.318C241.863 264.647 240.204 265.703 239.118 267.255C238.031 268.807 237.606 270.727 237.935 272.593C238.264 274.458 239.32 276.117 240.872 277.203C242.424 278.29 244.344 278.715 246.209 278.387C248.075 278.058 249.733 277.001 250.82 275.449C251.907 273.897 252.332 271.977 252.003 270.112ZM189.193 310.584C190.317 306.805 194.29 304.654 198.069 305.778L240.574 318.411L276.194 292.003C279.361 289.654 283.83 290.316 286.179 293.483C288.528 296.65 287.866 301.119 284.699 303.468L257.701 323.505L289.945 333.096C293.725 334.22 295.876 338.193 294.752 341.972C293.628 345.752 289.655 347.903 285.876 346.779L243.349 334.15L207.728 360.558C204.561 362.907 200.093 362.244 197.744 359.077C195.395 355.91 196.057 351.442 199.224 349.093L226.222 329.056L193.999 319.461C190.22 318.336 188.069 314.364 189.193 310.584Z" fill="#9054A2"/>
</g>
<g clip-path="url(#clip1_122_13)">
<path d="M628.616 275.587C626.895 285.347 619.796 292.958 610.423 296.495L609.586 301.244C608.9 305.135 605.202 307.724 601.311 307.038L580.208 303.317C576.317 302.631 573.728 298.933 574.414 295.042L575.251 290.294C567.658 283.742 563.59 274.162 565.307 264.424C568.047 248.882 584.447 238.787 601.923 241.868C619.399 244.95 631.356 260.046 628.616 275.587ZM582.791 278.386C584.656 278.715 586.576 278.29 588.128 277.203C589.68 276.117 590.737 274.458 591.065 272.592C591.394 270.727 590.969 268.807 589.882 267.255C588.796 265.703 587.137 264.647 585.271 264.318C583.406 263.989 581.486 264.414 579.934 265.501C578.382 266.588 577.326 268.246 576.997 270.112C576.668 271.977 577.093 273.897 578.18 275.449C579.267 277.001 580.925 278.057 582.791 278.386ZM615.686 276.934C616.015 275.068 615.589 273.148 614.502 271.596C613.416 270.044 611.757 268.988 609.892 268.659C608.026 268.33 606.106 268.756 604.554 269.842C603.003 270.929 601.946 272.587 601.617 274.453C601.288 276.319 601.714 278.238 602.8 279.79C603.887 281.342 605.545 282.399 607.411 282.728C609.277 283.057 611.197 282.631 612.748 281.544C614.3 280.458 615.357 278.799 615.686 276.934ZM542.821 293.483C545.17 290.316 549.639 289.653 552.806 292.002L588.426 318.411L630.931 305.778C634.71 304.654 638.683 306.805 639.807 310.584C640.931 314.364 638.78 318.336 635.001 319.46L602.778 329.055L629.798 349.096C632.965 351.446 633.627 355.914 631.278 359.081C628.929 362.248 624.461 362.911 621.294 360.562L585.651 334.15L543.147 346.782C539.367 347.907 535.395 345.755 534.27 341.976C533.146 338.197 535.297 334.224 539.077 333.1L571.299 323.505L544.302 303.468C541.135 301.119 540.472 296.65 542.821 293.483Z" fill="#9054A2"/>
</g>
<defs>
<filter id="filter0_i_122_13" x="0" y="-20" width="830" height="850" filterUnits="userSpaceOnUse" color-interpolation-filters="sRGB">
<feFlood flood-opacity="0" result="BackgroundImageFix"/>
<feBlend mode="normal" in="SourceGraphic" in2="BackgroundImageFix" result="shape"/>
<feColorMatrix in="SourceAlpha" type="matrix" values="0 0 0 0 0 0 0 0 0 0 0 0 0 0 0 0 0 0 127 0" result="hardAlpha"/>
<feMorphology radius="10" operator="erode" in="SourceAlpha" result="effect1_innerShadow_122_13"/>
<feOffset dy="-20"/>
<feGaussianBlur stdDeviation="10"/>
<feComposite in2="hardAlpha" operator="arithmetic" k2="-1" k3="1"/>
<feColorMatrix type="matrix" values="0 0 0 0 0 0 0 0 0 0 0 0 0 0 0 0 0 0 0.25 0"/>
<feBlend mode="normal" in2="shape" result="effect1_innerShadow_122_13"/>
</filter>
<clipPath id="clip0_122_13">
<rect width="100" height="114.286" fill="white" transform="translate(177.837 250.551) rotate(-10)"/>
</clipPath>
<clipPath id="clip1_122_13">
<rect width="100" height="114.286" fill="white" transform="translate(552.682 233.186) rotate(10)"/>
</clipPath>
</defs>
</svg>
