<svg width="830" height="830" viewBox="0 0 830 830" fill="none" xmlns="http://www.w3.org/2000/svg">
<g filter="url(#filter0_i_122_7)">
<circle cx="415" cy="415" r="400" fill="white"/>
</g>
<circle cx="415" cy="415" r="407.5" stroke="#353840" stroke-width="15"/>
<circle cx="567" cy="236" r="25" fill="#353840"/>
<circle cx="567" cy="250" r="25" fill="white"/>
<circle cx="262" cy="236" r="25" fill="#353840"/>
<circle cx="262" cy="250" r="25" fill="white"/>
<ellipse cx="415" cy="600" rx="100" ry="75" fill="#353840"/>
<path d="M588.053 303.602C588.053 346.071 588.144 353 566.053 353C543.962 353 546.053 346.071 546.053 303.602C546.053 261.132 543.961 243 566.053 243C588.144 243 588.053 261.132 588.053 303.602Z" fill="#353840"/>
<path d="M568.218 373.366C568.056 372.076 565.938 372.076 565.782 373.366C560.484 416.008 533.394 424.798 533.394 454.438C533.394 472.756 548.778 487.6 567 487.6C585.216 487.6 600.6 472.75 600.6 454.438C600.6 424.798 573.516 416.008 568.218 373.366ZM563.1 420.508C562.746 421.822 562.362 423.172 561.966 424.576C559.56 433.12 556.83 442.81 556.83 454.012C556.83 460.084 553.242 462.238 549.894 462.238C548.979 462.234 548.074 462.05 547.23 461.696C546.387 461.343 545.621 460.826 544.977 460.177C544.333 459.527 543.823 458.757 543.477 457.91C543.13 457.063 542.954 456.157 542.958 455.242C542.958 442 549.33 433.348 554.958 425.722C556.728 423.334 558.39 421.072 559.74 418.822C560.358 417.79 562.02 417.838 562.776 418.858C563.13 419.338 563.25 419.95 563.1 420.508Z" fill="#8DB4E9"/>
<path d="M283.053 300.602C283.053 343.071 283.144 350 261.053 350C238.962 350 241.053 343.071 241.053 300.602C241.053 258.132 238.961 240 261.053 240C283.144 240 283.053 258.132 283.053 300.602Z" fill="#353840"/>
<circle cx="415" cy="660" r="100" fill="white"/>
<defs>
<filter id="filter0_i_122_7" x="0" y="-20" width="830" height="850" filterUnits="userSpaceOnUse" color-interpolation-filters="sRGB">
<feFlood flood-opacity="0" result="BackgroundImageFix"/>
<feBlend mode="normal" in="SourceGraphic" in2="BackgroundImageFix" result="shape"/>
<feColorMatrix in="SourceAlpha" type="matrix" values="0 0 0 0 0 0 0 0 0 0 0 0 0 0 0 0 0 0 127 0" result="hardAlpha"/>
<feMorphology radius="10" operator="erode" in="SourceAlpha" result="effect1_innerShadow_122_7"/>
<feOffset dy="-20"/>
<feGaussianBlur stdDeviation="10"/>
<feComposite in2="hardAlpha" operator="arithmetic" k2="-1" k3="1"/>
<feColorMatrix type="matrix" values="0 0 0 0 0 0 0 0 0 0 0 0 0 0 0 0 0 0 0.25 0"/>
<feBlend mode="normal" in2="shape" result="effect1_innerShadow_122_7"/>
</filter>
</defs>
</svg>
