<svg width="830" height="830" viewBox="0 0 830 830" fill="none" xmlns="http://www.w3.org/2000/svg">
<g filter="url(#filter0_i_125_53)">
<circle cx="415" cy="415" r="400" fill="white"/>
</g>
<circle cx="415" cy="415" r="407.5" stroke="#353840" stroke-width="15"/>
<rect x="507.706" y="235.146" width="130" height="30" rx="15" transform="rotate(15 507.706 235.146)" fill="#353840"/>
<circle cx="262" cy="298" r="35" fill="#353840"/>
<circle cx="567" cy="298" r="35" fill="#353840"/>
<rect x="195.332" y="265.334" width="130" height="30" rx="15" transform="rotate(-15 195.332 265.334)" fill="#353840"/>
<path d="M511.29 579.491C498.929 566.235 484.799 556.123 468.902 549.156C453.005 542.189 436.664 538.412 419.881 537.826C403.097 537.24 386.533 539.868 370.188 545.709C353.843 551.55 339.043 560.651 325.787 573.013L313 559.3C328.084 545.234 344.973 534.881 363.667 528.242C382.362 521.602 401.315 518.614 420.528 519.276C439.741 519.947 458.442 524.248 476.632 532.18C494.822 540.111 510.945 551.619 525.003 566.703L511.29 579.491Z" fill="#353840"/>
<path d="M322.872 614.057C320.409 613.257 319.08 610.615 319.712 608.104C321.506 600.983 322.07 593.855 321.404 586.719C320.597 578.078 318.287 570.016 314.475 562.535C310.663 555.053 305.499 548.446 298.982 542.714C293.601 537.981 287.502 534.247 280.686 531.512C278.283 530.548 276.928 527.92 277.728 525.458V525.458C278.528 522.996 281.179 521.634 283.589 522.579C291.591 525.716 298.742 530.066 305.04 535.629C312.475 542.194 318.377 549.759 322.745 558.321C327.108 566.886 329.761 576.107 330.701 585.984C331.498 594.352 330.813 602.693 328.647 611.008C327.994 613.513 325.334 614.857 322.872 614.057V614.057Z" fill="#353840"/>
<path d="M556.08 541.404C556.966 543.837 555.702 546.512 553.334 547.559C546.619 550.529 540.654 554.474 535.441 559.392C529.128 565.348 524.198 572.131 520.649 579.741C517.1 587.351 515.074 595.488 514.569 604.152C514.152 611.307 514.964 618.412 517.006 625.467C517.726 627.953 516.489 630.64 514.056 631.525V631.525C511.624 632.411 508.918 631.16 508.179 628.679C505.725 620.442 504.75 612.129 505.256 603.741C505.852 593.84 508.18 584.532 512.238 575.819C516.3 567.107 521.933 559.34 529.138 552.518C535.241 546.738 542.236 542.143 550.122 538.731C552.498 537.703 555.195 538.972 556.08 541.404V541.404Z" fill="#353840"/>
<defs>
<filter id="filter0_i_125_53" x="0" y="0" width="830" height="980" filterUnits="userSpaceOnUse" color-interpolation-filters="sRGB">
<feFlood flood-opacity="0" result="BackgroundImageFix"/>
<feBlend mode="normal" in="SourceGraphic" in2="BackgroundImageFix" result="shape"/>
<feColorMatrix in="SourceAlpha" type="matrix" values="0 0 0 0 0 0 0 0 0 0 0 0 0 0 0 0 0 0 127 0" result="hardAlpha"/>
<feMorphology radius="75" operator="erode" in="SourceAlpha" result="effect1_innerShadow_125_53"/>
<feOffset dy="150"/>
<feGaussianBlur stdDeviation="75"/>
<feComposite in2="hardAlpha" operator="arithmetic" k2="-1" k3="1"/>
<feColorMatrix type="matrix" values="0 0 0 0 0.227451 0 0 0 0 0.772549 0 0 0 0 0.411765 0 0 0 0.8 0"/>
<feBlend mode="normal" in2="shape" result="effect1_innerShadow_125_53"/>
</filter>
</defs>
</svg>
