<svg width="830" height="830" viewBox="0 0 830 830" fill="none" xmlns="http://www.w3.org/2000/svg">
<g filter="url(#filter0_i_125_37)">
<circle cx="415" cy="415" r="400" fill="white"/>
</g>
<circle cx="415" cy="415" r="407.5" stroke="#353840" stroke-width="15"/>
<circle cx="262" cy="325" r="35" fill="#353840"/>
<circle cx="262" cy="300" r="40" fill="white"/>
<circle cx="567" cy="325" r="35" fill="#353840"/>
<circle cx="567" cy="300" r="40" fill="white"/>
<circle cx="414.5" cy="551.5" r="62.5" fill="#353840"/>
<path fill-rule="evenodd" clip-rule="evenodd" d="M482.833 107.333C482.833 110.648 484.15 113.828 486.495 116.172C488.839 118.516 492.018 119.833 495.333 119.833H523.492L486.492 156.833C484.745 158.582 483.556 160.809 483.075 163.233C482.594 165.657 482.842 168.169 483.789 170.452C484.735 172.735 486.337 174.687 488.391 176.06C490.446 177.433 492.862 178.166 495.333 178.166H553.667C555.308 178.166 556.934 177.843 558.45 177.215C559.967 176.587 561.345 175.666 562.506 174.505C563.666 173.344 564.587 171.966 565.215 170.45C565.843 168.933 566.167 167.308 566.167 165.666C566.167 164.025 565.843 162.399 565.215 160.883C564.587 159.366 563.666 157.988 562.506 156.828C561.345 155.667 559.967 154.746 558.45 154.118C556.934 153.49 555.308 153.166 553.667 153.166H525.508L562.508 116.166C564.255 114.418 565.444 112.191 565.925 109.767C566.406 107.342 566.158 104.83 565.212 102.547C564.265 100.264 562.664 98.3127 560.609 96.9397C558.554 95.5666 556.138 94.8335 553.667 94.833H495.333C492.018 94.833 488.839 96.15 486.495 98.4942C484.15 100.838 482.833 104.018 482.833 107.333ZM420.333 161.5C417.018 161.5 413.839 160.183 411.495 157.839C409.15 155.494 407.833 152.315 407.833 149C407.833 145.684 409.15 142.505 411.495 140.161C413.839 137.817 417.018 136.5 420.333 136.5H462C464.471 136.502 466.885 137.236 468.939 138.61C470.993 139.983 472.593 141.935 473.538 144.218C474.483 146.5 474.731 149.012 474.25 151.435C473.768 153.859 472.579 156.085 470.833 157.833L450.517 178.166H462C465.315 178.166 468.495 179.483 470.839 181.828C473.183 184.172 474.5 187.351 474.5 190.666C474.5 193.982 473.183 197.161 470.839 199.505C468.495 201.849 465.315 203.166 462 203.166H420.333C417.863 203.164 415.448 202.43 413.395 201.056C411.341 199.683 409.741 197.731 408.795 195.448C407.85 193.166 407.603 190.654 408.084 188.231C408.565 185.807 409.754 183.581 411.5 181.833L431.825 161.5H420.333ZM487 219.833C483.685 219.833 480.506 218.516 478.161 216.172C475.817 213.828 474.5 210.648 474.5 207.333C474.5 204.018 475.817 200.838 478.161 198.494C480.506 196.15 483.685 194.833 487 194.833H520.333C522.804 194.835 525.219 195.569 527.272 196.943C529.326 198.317 530.926 200.268 531.872 202.551C532.817 204.834 533.064 207.345 532.583 209.769C532.102 212.192 530.913 214.418 529.167 216.166L517.175 228.166H520.333C523.649 228.166 526.828 229.483 529.172 231.828C531.517 234.172 532.833 237.351 532.833 240.666C532.833 243.982 531.517 247.161 529.172 249.505C526.828 251.849 523.649 253.166 520.333 253.166H487C484.529 253.164 482.115 252.43 480.061 251.056C478.008 249.683 476.407 247.731 475.462 245.448C474.517 243.166 474.269 240.654 474.751 238.231C475.232 235.807 476.421 233.581 478.167 231.833L490.158 219.833H487Z" fill="#353840"/>
<defs>
<filter id="filter0_i_125_37" x="0" y="-20" width="830" height="850" filterUnits="userSpaceOnUse" color-interpolation-filters="sRGB">
<feFlood flood-opacity="0" result="BackgroundImageFix"/>
<feBlend mode="normal" in="SourceGraphic" in2="BackgroundImageFix" result="shape"/>
<feColorMatrix in="SourceAlpha" type="matrix" values="0 0 0 0 0 0 0 0 0 0 0 0 0 0 0 0 0 0 127 0" result="hardAlpha"/>
<feMorphology radius="10" operator="erode" in="SourceAlpha" result="effect1_innerShadow_125_37"/>
<feOffset dy="-20"/>
<feGaussianBlur stdDeviation="10"/>
<feComposite in2="hardAlpha" operator="arithmetic" k2="-1" k3="1"/>
<feColorMatrix type="matrix" values="0 0 0 0 0 0 0 0 0 0 0 0 0 0 0 0 0 0 0.25 0"/>
<feBlend mode="normal" in2="shape" result="effect1_innerShadow_125_37"/>
</filter>
</defs>
</svg>
