<svg width="830" height="830" viewBox="0 0 830 830" fill="none" xmlns="http://www.w3.org/2000/svg">
<g filter="url(#filter0_i_125_23)">
<circle cx="415" cy="415" r="400" fill="white"/>
</g>
<circle cx="415" cy="415" r="407.5" stroke="#353840" stroke-width="15"/>
<path d="M655 245H175V309H196.24L208.68 421H380.55L399 310.32V309C399 304.757 400.686 300.687 403.686 297.686C406.687 294.686 410.757 293 415 293C419.243 293 423.313 294.686 426.314 297.686C429.314 300.687 431 304.757 431 309V310.32L449.45 421H621.32L633.76 309H655V245Z" fill="#353840"/>
<g filter="url(#filter1_f_125_23)">
<circle cx="567" cy="325" r="35" fill="#E71D36"/>
</g>
<circle cx="567" cy="325" r="35" fill="#E71D36"/>
<path d="M290 549C290 546.239 292.239 544 295 544H535C537.761 544 540 546.239 540 549V549C540 554.523 535.523 559 530 559H300C294.477 559 290 554.523 290 549V549Z" fill="#353840"/>
<defs>
<filter id="filter0_i_125_23" x="0" y="-20" width="830" height="850" filterUnits="userSpaceOnUse" color-interpolation-filters="sRGB">
<feFlood flood-opacity="0" result="BackgroundImageFix"/>
<feBlend mode="normal" in="SourceGraphic" in2="BackgroundImageFix" result="shape"/>
<feColorMatrix in="SourceAlpha" type="matrix" values="0 0 0 0 0 0 0 0 0 0 0 0 0 0 0 0 0 0 127 0" result="hardAlpha"/>
<feMorphology radius="10" operator="erode" in="SourceAlpha" result="effect1_innerShadow_125_23"/>
<feOffset dy="-20"/>
<feGaussianBlur stdDeviation="10"/>
<feComposite in2="hardAlpha" operator="arithmetic" k2="-1" k3="1"/>
<feColorMatrix type="matrix" values="0 0 0 0 0 0 0 0 0 0 0 0 0 0 0 0 0 0 0.25 0"/>
<feBlend mode="normal" in2="shape" result="effect1_innerShadow_125_23"/>
</filter>
<filter id="filter1_f_125_23" x="522" y="280" width="90" height="90" filterUnits="userSpaceOnUse" color-interpolation-filters="sRGB">
<feFlood flood-opacity="0" result="BackgroundImageFix"/>
<feBlend mode="normal" in="SourceGraphic" in2="BackgroundImageFix" result="shape"/>
<feGaussianBlur stdDeviation="5" result="effect1_foregroundBlur_125_23"/>
</filter>
</defs>
</svg>
